<svg xmlns="http://www.w3.org/2000/svg" viewBox="0 0 512 512">
  <defs/>
  <path fill="#d0e2e7" d="M110.537 157.004h197.992v32.325H110.537z"/>
  <path fill="#b4d0d5" d="M278.224 157.004h30.305v32.325h-30.305z"/>
  <path fill="#b1e4f9" d="M76.191 70.13h34.346v171.728H76.191z"/>
  <path fill="#90d8f9" d="M76.191 218.769v23.089h34.346v-35.789a160.418 160.418 0 00-34.346 12.7z"/>
  <path fill="#86a0af" d="M7.5 7.5h62.63v32.325H7.5z"/>
  <path fill="#b1e4f9" d="M223.675 363.077h135.362v-79.803c0-22.316-18.091-40.406-40.406-40.406h-94.955v120.209z"/>
  <path fill="#90d8f9" d="M256.84 242.868h-33.165v120.209h86.874c0-47.681-20.76-90.599-53.709-120.209z"/>
  <circle cx="148.923" cy="363.077" r="105.057" fill="#86a0af"/>
  <path fill="#d0e2e7" d="M148.923 221.654C70.817 221.654 7.5 284.972 7.5 363.077S70.817 504.5 148.923 504.5s141.423-63.317 141.423-141.423-63.318-141.423-141.423-141.423zm0 246.48c-58.021 0-105.057-47.036-105.057-105.057S90.901 258.02 148.923 258.02 253.98 305.056 253.98 363.077s-47.036 105.057-105.057 105.057z"/>
  <path fill="#b4d0d5" d="M231.157 248.013c16.59 23.172 26.359 51.561 26.359 82.234 0 10.869-1.23 21.45-3.551 31.615.005.405.015.809.015 1.215 0 58.021-47.036 105.057-105.057 105.057-.406 0-.81-.011-1.215-.015a141.884 141.884 0 01-31.615 3.551c-30.673 0-59.062-9.768-82.234-26.359C59.514 481.145 101.49 504.5 148.923 504.5c78.106 0 141.423-63.317 141.423-141.423 0-47.433-23.355-89.408-59.189-115.064z"/>
  <circle cx="148.923" cy="363.077" r="20.203" fill="#d0e2e7"/>
  <circle cx="424.697" cy="460.053" r="44.447" fill="#d0e2e7"/>
  <path fill="#b4d0d5" d="M448.246 422.362a44.223 44.223 0 016.756 23.549c0 24.547-19.9 44.447-44.447 44.447-8.651 0-16.72-2.48-23.549-6.756 7.856 12.548 21.795 20.898 37.691 20.898 24.548 0 44.447-19.9 44.447-44.447 0-15.896-8.35-29.835-20.898-37.691z"/>
  <path fill="#f6e781" d="M413.585 7.5c-50.211 0-90.915 40.704-90.915 90.915 0 26.22 11.104 49.843 28.86 66.435l-13.708 29.53 33.406-15.507c12.65 6.673 27.06 10.456 42.356 10.456 50.211 0 90.915-40.704 90.915-90.915S463.796 7.5 413.585 7.5z"/>
  <path fill="#f1cb86" d="M483.067 39.789c4.701 11.771 7.29 24.613 7.29 38.061 0 56.706-45.97 102.676-102.676 102.676-5.265 0-10.436-.398-15.487-1.162 12.416 6.362 26.48 9.965 41.391 9.965 50.211 0 90.915-40.704 90.915-90.915 0-22.341-8.064-42.796-21.433-58.625z"/>
  <g>
    <path fill="#dd636e" d="M458.924 64.941c-12.501-12.501-32.688-12.614-45.338-.357-12.651-12.257-32.838-12.144-45.338.357-12.624 12.624-12.624 33.091 0 45.715l45.338 45.338 45.338-45.338c12.623-12.624 12.624-33.092 0-45.715z"/>
    <path fill="#da4a54" d="M458.924 64.941c-6.021-6.021-13.824-9.159-21.71-9.435a55.211 55.211 0 011.368 12.178c0 30.405-24.648 55.054-55.054 55.054-1.111 0-2.212-.043-3.307-.108l33.364 33.364 45.338-45.338c12.624-12.624 12.625-33.092.001-45.715z"/>
  </g>
  <g>
    <circle cx="424.697" cy="460.053" r="12.122"/>
    <path d="M148.923 250.521c-62.064 0-112.557 50.493-112.557 112.557s50.493 112.557 112.557 112.557S261.48 425.142 261.48 363.078c-.001-62.065-50.493-112.557-112.557-112.557zm87.979 154.691l-59.989-34.635h69.281a96.813 96.813 0 01-9.292 34.635zM51.651 370.577h69.281l-59.989 34.635a96.828 96.828 0 01-9.292-34.635zm9.292-49.635l59.989 34.635H51.651a96.833 96.833 0 019.292-34.635zm75.277 42.135c0-7.004 5.699-12.703 12.703-12.703s12.703 5.699 12.703 12.703-5.699 12.703-12.703 12.703-12.703-5.698-12.703-12.703zm20.203-97.271a96.813 96.813 0 0134.635 9.292l-34.635 59.989zm-15 69.281l-34.635-59.989a96.807 96.807 0 0134.635-9.292zm0 125.262a96.813 96.813 0 01-34.635-9.292l34.635-59.989zm15-69.281l34.635 59.989a96.807 96.807 0 01-34.635 9.292zm20.49-35.491l59.989-34.635a96.802 96.802 0 019.292 34.635zm52.464-47.61l-59.964 34.62 34.62-59.964a98.34 98.34 0 0125.344 25.344zM93.812 282.623l34.62 59.964-59.964-34.62a98.372 98.372 0 0125.344-25.344zM68.468 418.188l59.965-34.621-34.621 59.965a98.403 98.403 0 01-25.344-25.344zm135.565 25.344l-34.62-59.964 59.964 34.62a98.372 98.372 0 01-25.344 25.344z"/>
    <path d="M504.5 434.37h-34.677c-8.954-15.671-25.821-26.265-45.126-26.265-1.245 0-2.476.06-3.699.146l-16.491-47.626a7.5 7.5 0 00-7.087-5.046h-30.884v-30.116c0-4.142-3.357-7.5-7.5-7.5s-7.5 3.358-7.5 7.5v30.113h-53.879c-2.092-41.963-21.634-79.408-51.502-105.209h72.474c18.145 0 32.906 14.762 32.906 32.907v7.154c0 4.142 3.357 7.5 7.5 7.5s7.5-3.358 7.5-7.5v-7.154c0-26.416-21.49-47.907-47.906-47.907h-32.906v-38.539h22.805a7.5 7.5 0 007.5-7.5v-32.325a7.5 7.5 0 00-7.5-7.5H192.482a7.5 7.5 0 000 15h108.546v17.325H118.037v-17.325H157.5a7.5 7.5 0 000-15h-39.463V70.13a7.5 7.5 0 00-7.5-7.5h-9.673V39.825c0-12.904-10.384-23.421-23.234-23.652V7.5a7.5 7.5 0 00-7.5-7.5H7.5A7.5 7.5 0 000 7.5v32.325a7.5 7.5 0 007.5 7.5h62.63a7.5 7.5 0 007.5-7.5v-8.641c4.577.226 8.234 4.009 8.234 8.641V62.63h-9.673a7.5 7.5 0 00-7.5 7.5v167.533C27.408 264.166 0 310.481 0 363.077 0 445.193 66.807 512 148.923 512c65.738 0 121.656-42.818 141.351-102.026h41.488a7.5 7.5 0 007.5-7.5v-31.896h19.72c.02 0 .039.003.058.003h33.04l14.17 40.922c-19.561 7.458-33.5 26.402-33.5 48.551 0 28.644 23.304 51.947 51.947 51.947s51.947-23.303 51.947-51.947c0-3.661-.386-7.233-1.11-10.683H504.5a7.5 7.5 0 000-15.001zM62.63 32.325H15V15h47.63zm208.094 164.504v38.539h-45.275c-22.379-13.46-48.563-21.213-76.526-21.213a148.938 148.938 0 00-30.886 3.23V196.83h152.687zM83.691 77.63h19.346v143.768a147.995 147.995 0 00-19.346 7.825zM148.923 497C75.078 497 15 436.922 15 363.077s60.078-133.923 133.923-133.923 133.923 60.078 133.923 133.923S222.768 497 148.923 497zm175.339-102.026h-29.866a148.422 148.422 0 003.262-24.396h26.604zM424.697 497c-20.373 0-36.947-16.575-36.947-36.947s16.574-36.947 36.947-36.947 36.947 16.575 36.947 36.947S445.07 497 424.697 497z"/>
    <path d="M331.021 191.222a7.5 7.5 0 009.961 9.961l30.119-13.981c13.185 6.309 27.792 9.628 42.484 9.628a98.609 98.609 0 0027.294-3.835 7.501 7.501 0 00-4.152-14.414 83.575 83.575 0 01-23.142 3.25c-13.527 0-26.964-3.316-38.857-9.59a7.504 7.504 0 00-6.657-.169l-14.814 6.877 5.078-10.939a7.5 7.5 0 00-1.682-8.638c-17.077-15.957-26.481-37.605-26.481-60.956C330.171 52.419 367.59 15 413.585 15S497 52.419 497 98.415c0 25.626-11.532 49.467-31.641 65.407a7.5 7.5 0 009.318 11.755C498.396 156.773 512 128.649 512 98.415 512 44.148 467.852 0 413.585 0c-54.266 0-98.414 44.148-98.414 98.415 0 25.32 9.901 49.823 27.338 68.059z"/>
    <path d="M464.228 59.638c-13.666-13.665-35.151-15.268-50.643-4.699-15.489-10.569-36.978-8.966-50.641 4.699-7.522 7.521-11.665 17.522-11.665 28.16s4.143 20.639 11.664 28.161l45.338 45.339a7.5 7.5 0 0010.608 0l45.338-45.339c7.522-7.521 11.665-17.522 11.665-28.161 0-10.638-4.143-20.639-11.664-28.16zm-10.608 45.714l-40.035 40.036-40.035-40.036c-4.688-4.689-7.271-10.923-7.271-17.554s2.582-12.865 7.271-17.554c4.813-4.813 11.179-7.224 17.55-7.224 6.238 0 12.48 2.313 17.266 6.95a7.5 7.5 0 0010.438 0c9.674-9.371 25.293-9.25 34.816.274h.001c4.688 4.689 7.271 10.923 7.271 17.554s-2.582 12.865-7.272 17.554z"/>
  </g>
</svg>