<svg xmlns="http://www.w3.org/2000/svg" viewBox="0 -2 512 511">
  <defs/>
  <path fill="#ff8a80" d="M504 .5v180l-48 76-48-76V.5zm0 0"/>
  <path fill="#fff" d="M456 176.5l16-12V.5h-32v164zm0 0"/>
  <path fill="#50575e" d="M456 256.5l30.313-48h-60.625zm0 0"/>
  <path fill="#ffdecf" d="M472 164.5l-16 12-16-12-32 16 17.688 28h60.625l17.687-28zm0 0"/>
  <path fill="#91e8ed" d="M304 104.5h-96l-96 296h64l16-56h128l16 56h64zm-96 176l24-96h48l24 96zm0 0"/>
  <path d="M496 .5v167.055l-16-8V.5h-16v160l-8 6-8-6V.5h-16v159.055l-16 8V.5h-16v182.32l56 88.664 56-88.664V.5zm-40 241.016L440.2 216.5h31.6zm25.902-41.016h-51.804l-10.61-16.8 19.711-9.833L456 186.5l16.8-12.633 19.712 9.832zm0 0M225.754 176.5l-28 112h116.492l-28-112zm-7.508 96l20-80h35.508l20 80zm0 0"/>
  <path d="M312 103.242V48.5h32v-16h-32V.5h-16v32h-80V.5h-16v32h-32v16h32v54.742L176.238 176.5H64v-32H48v32H0v16h48v80H0v16h48v32h16v-32h75.91L88 448.5H48v16h34.832l-12.168 37.527 15.2 4.946L99.655 464.5h49.735l-10.797 37.8 15.39 4.4 12.055-42.2H208v-16h-37.39l27.421-96H313.97l27.422 96H304v16h41.96l12.056 42.2 15.39-4.4-10.797-37.8h49.735l13.777 42.473 15.2-4.946-12.153-37.527H464v-16h-40zM216 48.5h80v48h-80zm-152 224v-80h107.047l-25.942 80zm89.96 176h-49.12l12.976-40h47.575zm188.071-56l-16-56H185.97l-16 56h-46.961l90.808-280h84.368l90.808 280zm16 56l-11.43-40h47.575l13.023 40zm0 0"/>
</svg>