<svg xmlns="http://www.w3.org/2000/svg" data-name="Layer 1" viewBox="0 0 130 130">
  <defs/>
  <path fill="#fff" d="M53.25 67.25a10.75 10.75 0 11-21.5 0c0-5.937 10.75-13.75 10.75-13.75s10.75 7.813 10.75 13.75zM74.75 67.25a10.75 10.75 0 11-21.5 0C53.25 61.313 64 53.5 64 53.5s10.75 7.813 10.75 13.75zM96.25 67.25a10.75 10.75 0 11-21.5 0c0-5.937 10.75-13.75 10.75-13.75s10.75 7.813 10.75 13.75z"/>
  <path fill="#f82247" d="M22.666 87.333h82.667v3.917a14.083 14.083 0 01-14.083 14.083h-54.5A14.083 14.083 0 0122.666 91.25v-3.917z"/>
  <path fill="#f8c547" d="M28.25 73.833h71.5v13.5h-71.5z"/>
  <path fill="#452d31" d="M86.25 88.584a1.25 1.25 0 000-2.5h-.75a1.25 1.25 0 000 2.5z"/>
  <path fill="#452d31" d="M105.333 86.084H101v-12.25a1.25 1.25 0 00-1.25-1.25H77.644A9.39 9.39 0 0176 67.25c0-4.006 6.291-9.7 9.5-12.186 3.209 2.483 9.5 8.18 9.5 12.186a1.25 1.25 0 002.5 0c0-6.389-10.112-13.923-11.265-14.761a1.252 1.252 0 00-1.471 0c-.9.655-7.272 5.4-10.015 10.49-2.742-5.091-9.114-9.835-10.015-10.49a1.25 1.25 0 00-1.47 0c-.18.131-.578.425-1.122.852L44.929 22.064a1.25 1.25 0 00-2.19 1.2l17.443 31.698c-.661.574-1.377 1.227-2.1 1.938L31.117 25.355a1.25 1.25 0 10-1.9 1.624l27.126 31.737a22.911 22.911 0 00-3.093 4.263c-2.742-5.091-9.114-9.835-10.015-10.49a1.25 1.25 0 00-1.47 0C40.612 53.327 30.5 60.861 30.5 67.25a11.89 11.89 0 001.255 5.334H28.25a1.25 1.25 0 00-1.25 1.25V82.5a1.25 1.25 0 002.5 0v-7.416h69v11H91a1.25 1.25 0 000 2.5h13.083v2.666a12.848 12.848 0 01-12.833 12.834h-54.5A12.848 12.848 0 0123.916 91.25v-2.666H80.75a1.25 1.25 0 000-2.5H22.666a1.25 1.25 0 00-1.25 1.25v3.916a15.351 15.351 0 0015.334 15.334h54.5a15.35 15.35 0 0015.333-15.334v-3.916a1.25 1.25 0 00-1.25-1.25zm-30.578-13.5h-.011l.005-.011zM57.994 60.648l5.055 5.914a1.25 1.25 0 101.9-1.624l-5.229-6.117A48.428 48.428 0 0164 55.064c3.209 2.483 9.5 8.18 9.5 12.186a9.4 9.4 0 01-1.644 5.334H56.144A9.4 9.4 0 0154.5 67.25c0-1.985 1.546-4.384 3.494-6.602zm-4.739 11.936h-.01l.005-.011zM33 67.25c0-4.006 6.291-9.7 9.5-12.186 3.208 2.483 9.5 8.18 9.5 12.186a9.393 9.393 0 01-1.644 5.334H34.644A9.4 9.4 0 0133 67.25z"/>
  <path fill="#452d31" d="M14.4648 1.4375C8.855469 2.5625 3.769531 7.246094 1.773438 13.15625c-.449219 1.320312-.472657 3.167969-.472657 51.859375s.023438 50.535156.472657 51.855469c.972656 2.894531 2.167968 4.785156 4.363281 6.980468 2.21875 2.195313 4.1875 3.441407 7.003906 4.386719 1.320313.449219 3.167969.476563 51.859375.476563s50.535156-.027344 51.855469-.476563c2.84375-.972656 4.785156-2.167969 6.980469-4.386719 2.21875-2.195312 3.414062-4.136718 4.386718-6.980468.449219-1.320313.476563-3.167969.476563-51.855469 0-48.691406-.027344-50.539063-.476563-51.859375-.945312-2.816406-2.191406-4.785156-4.386718-6.980469-2.144532-2.167969-3.714844-3.191406-6.65625-4.3125l-1.445313-.550781-50.113281-.023438c-27.546875-.023437-50.585938.050782-51.15625.148438zm102.070312 8.453125c1.621094.722656 3.089844 2.269531 3.710938 3.914063.449218 1.199218.472656 2.644531.472656 51.210937s-.023438 50.011719-.472656 51.210937c-.621094 1.644532-2.09375 3.191407-3.710938 3.914063l-1.296875.597656H14.761719l-1.296875-.597656c-1.621094-.722656-3.089844-2.269531-3.714844-3.914063-.445312-1.199218-.472656-2.644531-.472656-51.210937 0-48.441406.027344-50.035156.472656-51.210937.523438-1.394532 1.871094-2.988282 2.992188-3.5625 2.046874-1.074219.398437-1.046876 52.632812-.996094l49.859375.046875zm0 0"/>  

</svg>
