<svg xmlns="http://www.w3.org/2000/svg" viewBox="0 0 512 512">
  <defs/>
  <path fill="#000" d="M0 0v512h512V0H0zm482 160.661H351.328V30H482v130.661zM190.661 321.328V190.661h130.667v130.667H190.661zm130.667 30V482H190.661V351.328h130.667zm-160.667-30H30V190.661h130.661v130.667zm30-160.667V30h130.667v130.661H190.661zm160.667 30H482v130.667H351.328V190.661zM160.661 30v130.661H30V30h130.661zM30 351.328h130.661V482H30V351.328zM351.328 482V351.328H482V482H351.328z"/>
  <path fill="#fdb62f" d="M256 0v30h65.328v130.661H256v30h65.328v130.667H256v30h65.328V482H256v30h256V0H256zm226 482H351.328V351.328H482V482zm0-160.672H351.328V190.661H482v130.667zm0-160.667H351.328V30H482v130.661z"/>
</svg>