<svg xmlns="http://www.w3.org/2000/svg" viewBox="0 0 512 512">
  <defs/>
  <path fill="#88b337" d="M450.242 239.381c1.836-10.09-.034-20.504-5.27-29.328-2.584-3.919-1.505-9.189 2.414-11.774 1.471-.969 3.213-1.462 4.981-1.403h49.389V60.865c0-28.171-22.833-51.004-51.004-51.004H315.505v49.474c.034 4.692 3.868 8.475 8.56 8.441 1.403-.008 2.788-.366 4.021-1.046 8.96-5.449 19.637-7.328 29.923-5.27 23.097 4.174 38.44 26.284 34.267 49.389-4.174 23.097-26.284 38.44-49.389 34.267-4.82-.876-9.453-2.567-13.695-5.024-4.063-2.355-9.266-.969-11.612 3.094-.816 1.403-1.207 3.018-1.139 4.641l-.935 49.049h48.284c4.684-.255 8.696 3.332 8.951 8.025.094 1.649-.306 3.298-1.131 4.726-3.757 6.452-5.729 13.788-5.695 21.252 0 23.471 19.033 42.504 42.512 42.495 20.546 0 38.151-14.706 41.815-34.93v.937z"/>
  <path fill="#fdb62f" d="M238.998 77.867c-2.89-17.444-16.559-31.113-34.003-34.003 17.444-2.89 31.113-16.559 34.003-34.003 2.89 17.444 16.559 31.113 34.003 34.003-17.443 2.89-31.112 16.559-34.003 34.003z"/>
  <g fill="#d9d9d9">
    <path d="M409.013 366.892v-17.001c23.471 0 42.504-19.033 42.504-42.504h17.001c.001 32.864-26.641 59.505-59.505 59.505z"/>
    <path d="M409.013 409.396v-17.001c46.95 0 85.007-38.058 85.007-85.007h17.001c.001 56.333-45.673 102.008-102.008 102.008z"/>
  </g>
  <g fill="#ffa83d">
    <path d="M61.248 502.904h135.247H55.297c1.981.128 3.97.128 5.951 0zM196.495 366.892c.17-1.046.17-2.1 0-3.145v1.02c.085.706.085 1.42 0 2.125z"/>
  </g>
  <path fill="#4398d1" d="M272.406 213.199c-.612-2.686-1.488-5.313-2.635-7.821-5.577-12.802-17.078-22.042-30.773-24.737-10.09-1.904-20.529-.026-29.328 5.27-3.919 2.584-9.189 1.505-11.774-2.414-.969-1.471-1.462-3.213-1.403-4.981v-49.644H60.483c-28.171 0-51.004 22.833-51.004 51.004v136.012H62.268c1.165-.408 2.236-1.037 3.145-1.87l.51-.51c2.04-3.188 2.04-7.268 0-10.456-1.7-2.848-3.009-5.908-3.91-9.096-5.066-13.159-2.38-28.044 6.971-38.593 5.993-8.118 14.715-13.788 24.567-15.981 1.845-.408 3.723-.663 5.61-.765 23.76-2.066 44.697 15.522 46.763 39.282.119 1.326.17 2.661.161 3.987.034 7.464-1.938 14.8-5.695 21.252-2.355 4.063-.969 9.266 3.094 11.621 1.437.833 3.077 1.224 4.726 1.131h48.284v-51.004c0-6.546 7.566-8.926 13.261-5.611 6.452 3.757 13.788 5.73 21.252 5.695 23.471-.042 42.47-19.11 42.419-42.589 0-3.087-.348-6.165-1.02-9.182z"/>
  <path fill="#de4c3c" d="M334.377 315.888c-4.692.034-8.475 3.868-8.441 8.56.009 1.403.366 2.788 1.046 4.021 12.029 20.164 5.432 46.253-14.732 58.273-3.868 2.304-8.076 3.987-12.471 4.973-6.027 1.275-12.25 1.275-18.277 0-22.944-4.973-37.505-27.602-32.532-50.545.918-4.25 2.491-8.331 4.65-12.105 2.61-3.902 1.564-9.181-2.338-11.791-1.131-.757-2.431-1.233-3.783-1.386h-51.004v47.604c.204 1.122.204 2.278 0 3.4-1.394 5.117-6.682 8.135-11.799 6.733-.502-.136-.995-.315-1.462-.527-6.435-3.8-13.78-5.772-21.252-5.695-23.241.136-41.968 19.084-41.832 42.325.136 23.241 19.084 41.968 42.325 41.832 7.625-.043 15.089-2.159 21.609-6.121 4.123-2.253 9.283-.74 11.536 3.375.689 1.258 1.046 2.669 1.046 4.106l-.17 49.984h136.012c28.171 0 51.004-22.833 51.004-51.004V315.888h-49.135z"/>
  <path fill="#ffa83d" d="M196.495 316.058v.085z"/>
  <path fill="#fdb62f" d="M184.084 445.439c-19.637 12.87-45.981 7.379-58.851-12.25s-7.379-45.981 12.25-58.851c7.26-4.76 15.811-7.183 24.491-6.937 7.472-.077 14.817 1.896 21.252 5.695 4.828 2.21 10.524.085 12.734-4.743.213-.476.391-.961.527-1.462.085-.706.085-1.42 0-2.125v-48.879h-48.284c-4.684.255-8.696-3.332-8.951-8.025-.094-1.649.306-3.298 1.131-4.726 3.757-6.452 5.73-13.788 5.696-21.252-.008-23.853-19.339-43.184-43.192-43.175-1.25 0-2.491.051-3.732.162-1.887.102-3.766.357-5.61.765-9.606 2.125-18.158 7.574-24.142 15.386-9.351 10.549-12.037 25.434-6.971 38.593.901 3.188 2.21 6.248 3.91 9.096 2.04 3.188 2.04 7.268 0 10.456l-.51.51c-.91.833-1.981 1.462-3.145 1.87l-2.21.34H9.47V451.9c.323 26.08 19.917 47.893 45.819 51.004h141.197V452.92c-.034-4.692-3.876-8.467-8.569-8.433-1.326.009-2.643.34-3.833.952z"/>
  <path fill="#c94536" d="M196.495 457v45.904h136.012c28.171 0 51.004-22.833 51.004-51.004v-96.653C334.462 404.551 265.861 436.428 196.495 457z"/>
  <path fill="#ffa83d" d="M26.48 489.218c7.923 7.489 18.005 12.284 28.818 13.686h141.197V457C140.951 473.007 84.03 483.794 26.48 489.218z"/>
  <path fill="#78a82f" d="M315.505 188.377v8.501h48.284c4.684-.255 8.696 3.332 8.951 8.025.094 1.649-.306 3.298-1.131 4.726-3.757 6.452-5.729 13.788-5.695 21.252.043 23.471 19.101 42.47 42.58 42.427 23.471-.043 42.47-19.101 42.427-42.58-.017-7.608-2.066-15.072-5.951-21.617-2.066-4.216-.323-9.308 3.885-11.374 1.097-.536 2.287-.833 3.511-.867h49.389V87.048c-41.227 62.225-119.264 89.598-186.25 101.329z"/>
  <path d="M458.573 240.401c2.304-12.037.094-24.508-6.206-35.023h49.474c4.692 0 8.501-3.808 8.501-8.501V60.865c.111-15.93-6.163-31.24-17.427-42.504C481.627 7.183 466.3 1.046 450.412 1.36H315.505c-2.261-.017-4.429.876-6.036 2.465-1.59 1.607-2.482 3.774-2.465 6.036v49.474c-.051 6.129 3.196 11.816 8.501 14.876 5.262 3.035 11.74 3.035 17.001 0 7.005-4.242 15.327-5.755 23.377-4.25 18.472 3.383 30.705 21.099 27.33 39.571-1.02 5.593-3.434 10.838-7.013 15.259-6.41 7.897-16.015 12.513-26.182 12.581-5.976-.008-11.833-1.59-17.001-4.59-5.262-3.035-11.74-3.035-17.001 0-5.338 3.077-8.586 8.807-8.501 14.961l-.51 49.134c-.017 2.261.876 4.429 2.465 6.036 1.573 1.598 3.706 2.516 5.951 2.55h48.794c-14.086 24.397-5.73 55.586 18.668 69.672 7.787 4.497 16.627 6.852 25.621 6.835 3.689.025 7.37-.374 10.966-1.19 19.942-4.412 35.328-20.3 39.103-40.379zm-71.492 17.002c-13.117-10.388-16.721-28.784-8.501-43.354 3.162-5.228 3.162-11.774 0-17.001-3.162-5.296-8.883-8.526-15.046-8.501l-39.529-.17.425-41.229c7.574 4.59 16.228 7.081 25.077 7.226 28.163.731 51.583-21.507 52.314-49.661.663-25.502-17.614-47.57-42.793-51.668-11.986-2.261-24.38-.051-34.853 6.206l-.17-40.889h127.001c23.471 0 42.504 19.033 42.504 42.504v127.511h-41.059c-6.095-.025-11.74 3.222-14.791 8.501-3.162 5.228-3.162 11.774 0 17.001 4.208 7.013 5.695 15.335 4.165 23.377-3.417 18.464-21.15 30.671-39.622 27.253-5.542-1.02-10.736-3.409-15.123-6.937v-.169zM247.499 8.501c0-4.692-3.808-8.501-8.501-8.501-4.692 0-8.501 3.808-8.501 8.501-2.355 13.746-13.117 24.508-26.862 26.862-4.692 0-8.501 3.808-8.501 8.501s3.808 8.501 8.501 8.501c13.746 2.355 24.508 13.117 26.862 26.862 0 4.692 3.808 8.501 8.501 8.501 4.692 0 8.501-3.808 8.501-8.501 2.355-13.746 13.117-24.508 26.862-26.862 4.692 0 8.501-3.808 8.501-8.501s-3.808-8.501-8.501-8.501c-13.745-2.355-24.507-13.117-26.862-26.862zm-8.501 47.519c-3.298-4.743-7.413-8.858-12.156-12.156 4.743-3.298 8.858-7.413 12.156-12.156 3.298 4.743 7.413 8.858 12.156 12.156-4.743 3.298-8.857 7.413-12.156 12.156zM383.511 307.387h-49.474c-6.129-.051-11.816 3.196-14.876 8.501-3.035 5.262-3.035 11.74 0 17.001 4.242 7.005 5.755 15.327 4.25 23.377-3.383 18.472-21.099 30.705-39.571 27.33-5.593-1.02-10.838-3.434-15.259-7.013-7.897-6.41-12.513-16.015-12.581-26.182.008-5.976 1.59-11.833 4.59-17.001 3.162-5.228 3.162-11.774 0-17.001-3.077-5.338-8.807-8.586-14.961-8.501l-40.634-.51v-40.889c7.736 4.531 16.542 6.911 25.502 6.886 28.171.136 51.115-22.586 51.251-50.749.119-24.686-17.461-45.921-41.73-50.409-11.986-2.261-24.38-.051-34.853 6.206l-.17-49.559c0-4.692-3.808-8.501-8.501-8.501H60.483c-32.864 0-59.505 26.641-59.505 59.505V315.38c0 1.148.264 2.287.765 3.315v133.802C1.743 485.359 28.384 512 61.248 512h135.247c1.377-.025 2.72-.408 3.91-1.105h132.357c32.864 0 59.505-26.641 59.505-59.505V315.888c.017-2.261-.876-4.429-2.465-6.036-1.666-1.657-3.945-2.55-6.291-2.465zM17.979 179.876c0-23.471 19.033-42.504 42.504-42.504h127.511v40.974c-.051 6.129 3.196 11.816 8.501 14.876 5.262 3.035 11.74 3.035 17.001 0 7.005-4.242 15.327-5.755 23.377-4.25 18.472 3.383 30.705 21.099 27.33 39.571-1.02 5.593-3.434 10.838-7.013 15.259-6.41 7.897-16.015 12.513-26.182 12.581-5.976-.008-11.833-1.59-17.001-4.59-5.262-3.035-11.74-3.035-17.001 0-5.296 3.162-8.526 8.883-8.501 15.046v39.783h-40.039c9.971-18.141 7.991-40.506-5.015-56.615-2.499-3.154-5.347-6.002-8.501-8.501-21.915-17.699-54.031-14.281-71.729 7.642-5.338 6.605-8.934 14.443-10.473 22.79-2.261 11.986-.051 24.38 6.206 34.853H17.979V179.876zm43.184 314.527c-23.471 0-42.504-19.033-42.504-42.504V324.388h41.059c6.095.025 11.74-3.222 14.791-8.501 3.205-5.211 3.205-11.791 0-17.001-9.257-16.338-3.519-37.089 12.828-46.346 14.205-8.05 32.124-4.862 42.682 7.583 4.548 5.959 6.996 13.253 6.971 20.742-.008 5.976-1.59 11.833-4.59 17.001-3.035 5.262-3.035 11.74 0 17.001.791 1.369 1.76 2.627 2.89 3.74 3.23 3.723 7.906 5.866 12.836 5.866l39.869-.085v40.124c-7.812-4.335-16.568-6.665-25.502-6.801-28.171 0-51.004 22.833-51.004 51.004-.017 3.995.374 7.991 1.19 11.901 4.157 20.181 20.062 35.882 40.294 39.784 11.986 2.253 24.38.043 34.853-6.206l.17 40.209H61.163zM375.01 451.22c0 23.471-19.033 42.504-42.504 42.504H204.995v-41.059c.025-6.095-3.222-11.74-8.501-14.791-5.211-3.205-11.791-3.205-17.001 0-7.013 4.208-15.335 5.695-23.377 4.165-13.27-2.389-23.879-12.394-27.032-25.502-.4-2.355-.604-4.752-.595-7.141.459-18.447 15.548-33.161 34.003-33.153 5.968-.043 11.833 1.513 17.001 4.505 5.211 3.205 11.791 3.205 17.001 0 5.338-3.077 8.586-8.807 8.501-14.961v-41.399l41.059.425c-14.103 24.38-5.772 55.586 18.608 69.689 24.38 14.103 55.586 5.772 69.689-18.608 2.967-5.126 5.015-10.736 6.061-16.568 2.261-11.986.051-24.38-6.206-34.853l40.804-.085V451.22zM409.013 349.891v17.001c32.864 0 59.505-26.641 59.505-59.505h-17.001c0 23.471-19.033 42.504-42.504 42.504z"/>
  <path d="M409.013 392.394v17.001c56.334 0 102.009-45.675 102.009-102.009h-17.001c0 46.951-38.058 85.008-85.008 85.008z"/>
</svg>
