<svg xmlns="http://www.w3.org/2000/svg" viewBox="0 0 512 512">
  <defs/>
  <g fill="#424c59">
    <path d="M191.816 7.605c-13.439 0-24.333 10.894-24.333 24.333v448.128c0 13.439 10.894 24.333 24.333 24.333 13.439 0 24.333-10.894 24.333-24.333V31.938c0-13.439-10.894-24.333-24.333-24.333z"/>
    <path d="M327.163 7.605c-13.439 0-24.333 10.894-24.333 24.333v448.128c0 13.439 10.894 24.333 24.333 24.333 13.439 0 24.333-10.894 24.333-24.333V31.938c0-13.439-10.894-24.333-24.333-24.333z"/>
    <path d="M57.379 7.605c-13.439 0-24.333 10.894-24.333 24.333v448.128c0 13.439 10.894 24.333 24.333 24.333 13.439 0 24.333-10.894 24.333-24.333V31.938C81.711 18.499 70.817 7.605 57.379 7.605z"/>
  </g>
  <g fill="#fcc63f">
    <circle cx="327.327" cy="199.7" r="49.051"/>
    <circle cx="191.256" cy="112.508" r="49.051"/>
    <circle cx="57.465" cy="362.78" r="49.051"/>
  </g>
  <path fill="#ffe2c5" d="M252.501 306.683c13.875-7.698 31.359-2.693 39.049 11.184 9.592 17.287 10.77 25.851 10.77 25.851V208.753c0-6.941 2.813-13.23 7.37-17.787 4.557-4.557 10.846-7.371 17.787-7.371 13.887 0 25.147 11.255 25.157 25.14v89.075c0-13.895 11.264-25.159 25.159-25.159s25.159 11.264 25.159 25.159v6.415c0-13.895 11.264-25.159 25.159-25.159s25.159 11.264 25.159 25.159v25.159c0-13.895 11.264-25.159 25.159-25.159s25.159 11.264 25.159 25.159v58.026c0 54.103-34.704 116.983-96.142 116.983h-74.937c-83.244 0-83.796-115.264-83.796-115.264s.018-30.029-7.395-43.399c-7.697-13.866-2.692-31.349 11.183-39.047z"/>
  <g fill="#e5c4a5">
    <path d="M314.376 390.046c-6.574.302-12.055-4.986-12.055-11.567V208.754c0-6.945 2.819-13.231 7.371-17.783 4.562-4.562 10.848-7.371 17.793-7.371 4.208 0 8.182 1.034 11.659 2.869-2.271 1.176-4.339 2.707-6.134 4.502-4.552 4.552-7.371 10.838-7.371 17.783v169.717c0 6.149-4.806 11.258-10.949 11.559-.104.006-.209.011-.314.016z"/>
    <path d="M364.688 348.517c-6.574.302-12.055-4.986-12.055-11.567v-39.139c0-6.945 2.819-13.231 7.371-17.783 4.562-4.562 10.848-7.371 17.793-7.371 4.208 0 8.182 1.034 11.659 2.869-2.271 1.176-4.339 2.707-6.134 4.502-4.552 4.552-7.371 10.838-7.371 17.783v39.132c0 6.149-4.806 11.258-10.949 11.559-.103.005-.208.01-.314.015z"/>
    <path d="M415.006 339.723c-6.574.302-12.054-4.986-12.054-11.567v-23.931c0-6.945 2.819-13.231 7.371-17.783 4.562-4.562 10.848-7.371 17.793-7.371 4.208 0 8.182 1.034 11.659 2.869-2.271 1.176-4.339 2.707-6.134 4.502-4.552 4.552-7.371 10.838-7.371 17.783v23.923c0 6.149-4.806 11.258-10.949 11.559-.104.006-.209.011-.315.016z"/>
    <path d="M465.323 349.673c-6.574.302-12.054-4.986-12.054-11.566v-8.722c0-6.945 2.819-13.231 7.371-17.783 4.562-4.562 10.848-7.371 17.793-7.371 4.208 0 8.182 1.034 11.659 2.869-2.271 1.176-4.339 2.707-6.134 4.502-4.552 4.552-7.371 10.838-7.371 17.783v8.714c0 6.149-4.806 11.258-10.949 11.559-.104.005-.209.01-.315.015z"/>
    <path d="M355.832 504.396h-23.319c-83.248 0-83.796-115.266-83.796-115.266 0-.162-.01-30.071-7.401-43.403-7.695-13.859-2.687-31.349 11.183-39.044 8.192-4.542 17.651-4.664 25.6-1.135-.771.345-1.531.72-2.281 1.135-13.87 7.695-18.878 25.184-11.183 39.044 7.391 13.332 7.401 43.241 7.401 43.403.001 0 .548 115.266 83.796 115.266z"/>
  </g>
  <path d="M247.908 112.507c0-31.239-25.414-56.654-56.653-56.654s-56.654 25.414-56.654 56.654 25.414 56.654 56.654 56.654 56.653-25.415 56.653-56.654zm-98.098 0c0-22.853 18.592-41.446 41.446-41.446S232.7 89.654 232.7 112.507s-18.592 41.446-41.445 41.446-41.445-18.592-41.445-41.446z"/>
  <path d="M57.465 306.122c-31.239 0-56.654 25.414-56.654 56.654s25.414 56.654 56.654 56.654 56.653-25.414 56.653-56.654c.001-31.239-25.414-56.654-56.653-56.654zm0 98.098c-22.853 0-41.446-18.592-41.446-41.446s18.592-41.446 41.446-41.446S98.91 339.92 98.91 362.774c.001 22.854-18.591 41.446-41.445 41.446z"/>
  <path d="M478.428 296.621c-6.492 0-12.549 1.897-17.645 5.168-1.249-16.932-15.427-30.327-32.673-30.327-8.721 0-16.658 3.426-22.535 9.001-5.797-9.251-16.083-15.416-27.783-15.416-6.453 0-12.478 1.876-17.554 5.11V208.73c-.013-18.052-14.71-32.738-32.761-32.738-8.75 0-16.975 3.409-23.163 9.597-6.189 6.189-9.598 14.415-9.598 23.164v100.233c-4.658-5.803-10.978-10.022-18.278-12.113-9.328-2.672-19.14-1.549-27.627 3.16-8.486 4.708-14.631 12.438-17.302 21.767-2.672 9.329-1.55 19.138 3.157 27.619 5.282 9.528 6.441 31.895 6.441 39.748.006 1.231.27 30.487 11.144 60.208 14.99 40.968 42.741 62.623 80.255 62.623h74.937c31.343 0 59.339-15.465 78.832-43.546 2.395-3.45 1.54-8.188-1.911-10.583-3.447-2.395-8.186-1.539-10.583 1.911-11.72 16.884-32.743 37.011-66.339 37.011h-74.937c-30.895 0-53.05-17.601-65.852-52.311-10.049-27.249-10.337-55.111-10.339-55.344.002-3.275-.215-32.421-8.35-47.094-2.736-4.93-3.388-10.632-1.835-16.055s5.126-9.918 10.06-12.655c4.934-2.738 10.637-3.391 16.062-1.838 5.422 1.552 9.913 5.125 12.649 10.063 7.508 13.53 9.454 21.198 9.817 22.853v44.62c0 4.199 3.404 7.604 7.604 7.604s7.604-3.405 7.604-7.604V208.756c0-4.686 1.827-9.093 5.143-12.411 3.316-3.316 7.723-5.142 12.409-5.142 9.672 0 17.547 7.869 17.553 17.536v131.445c0 4.199 3.404 7.604 7.604 7.604s7.604-3.405 7.604-7.604v-42.37c0-9.679 7.876-17.555 17.554-17.555s17.554 7.875 17.554 17.555v34.18c0 4.199 3.404 7.604 7.604 7.604s7.604-3.405 7.604-7.604v-27.765c0-9.68 7.876-17.555 17.555-17.555 9.679 0 17.554 7.875 17.554 17.555v38.297c0 4.199 3.404 7.604 7.604 7.604s7.604-3.405 7.604-7.604v-13.138c0-9.679 7.876-17.555 17.555-17.555 9.679 0 17.554 7.875 17.554 17.555v58.026c0 17.627-3.805 35.671-11.004 52.179-1.678 3.85.081 8.331 3.931 10.01 3.854 1.679 8.332-.081 10.01-3.931 8.028-18.411 12.272-38.556 12.272-58.258v-58.026c.001-18.07-14.696-32.767-32.761-32.767z"/>
  <path d="M285.095 225.796c3.867-1.636 5.678-6.097 4.04-9.965-2.159-5.105-3.254-10.531-3.254-16.131 0-22.853 18.592-41.446 41.446-41.446 22.853 0 41.446 18.592 41.446 41.446 0 5.599-1.095 11.026-3.253 16.131-1.636 3.868.173 8.33 4.04 9.965.967.41 1.971.602 2.959.602 2.962 0 5.779-1.743 7.006-4.643 2.956-6.989 4.456-14.409 4.456-22.055 0-19.472-9.877-36.678-24.881-46.88V31.937C359.1 14.327 344.773 0 327.163 0s-31.937 14.327-31.937 31.937v121.118c-14.818 10.229-24.553 27.319-24.553 46.646 0 7.646 1.5 15.066 4.456 22.055 1.636 3.868 6.097 5.675 9.966 4.04zm25.34-193.859c0-9.224 7.505-16.729 16.729-16.729s16.729 7.505 16.729 16.729v113.587c-5.243-1.606-10.803-2.476-16.564-2.476-5.881 0-11.555.902-16.893 2.573V31.937z"/>
  <path d="M167.48 51.857c4.199 0 7.604-3.405 7.604-7.604V31.937c0-9.224 7.505-16.729 16.729-16.729s16.729 7.505 16.729 16.729v12.955c0 4.199 3.405 7.604 7.604 7.604s7.604-3.405 7.604-7.604V31.937C223.75 14.327 209.423 0 191.813 0s-31.937 14.327-31.937 31.937v12.316c0 4.2 3.405 7.604 7.604 7.604z"/>
  <path d="M216.146 401.764c-4.199 0-7.604 3.405-7.604 7.604v70.696c0 4.467-1.74 8.668-4.9 11.829-3.16 3.16-7.361 4.9-11.829 4.9-9.224 0-16.729-7.505-16.729-16.729v-299.3c0-4.199-3.405-7.604-7.604-7.604s-7.604 3.405-7.604 7.604v299.3c0 17.61 14.327 31.937 31.937 31.937 8.531 0 16.549-3.322 22.582-9.355 6.032-6.033 9.355-14.052 9.355-22.582v-70.696c0-4.2-3.405-7.604-7.604-7.604z"/>
  <path d="M216.146 172.521c-4.199 0-7.604 3.405-7.604 7.604V384.02c0 4.199 3.405 7.604 7.604 7.604s7.604-3.405 7.604-7.604V180.125c0-4.2-3.405-7.604-7.604-7.604z"/>
  <path d="M33.042 68.2c4.199 0 7.604-3.405 7.604-7.604v-28.66c0-9.224 7.505-16.729 16.729-16.729s16.729 7.505 16.729 16.729v262.852c0 4.199 3.405 7.604 7.604 7.604s7.604-3.405 7.604-7.604V31.937C89.312 14.327 74.985 0 57.375 0S25.438 14.327 25.438 31.937v28.66c0 4.199 3.405 7.603 7.604 7.603z"/>
  <path d="M33.042 302.494c4.199 0 7.604-3.405 7.604-7.604V85.945c0-4.199-3.405-7.604-7.604-7.604s-7.604 3.405-7.604 7.604V294.89c0 4.199 3.405 7.604 7.604 7.604z"/>
  <path d="M81.708 423.167c-4.199 0-7.604 3.405-7.604 7.604v49.292c0 4.467-1.74 8.668-4.9 11.829s-7.361 4.9-11.829 4.9c-9.224 0-16.729-7.505-16.729-16.729v-49.404c0-4.199-3.405-7.604-7.604-7.604s-7.604 3.405-7.604 7.604v49.404c0 17.61 14.327 31.937 31.937 31.937 8.53 0 16.549-3.322 22.582-9.355 6.032-6.033 9.355-14.052 9.355-22.582v-49.292c0-4.199-3.405-7.604-7.604-7.604z"/>
</svg>