<svg xmlns="http://www.w3.org/2000/svg" viewBox="0 0 436.907 436.907">
  <defs/>
  <path fill="#fff" d="M320.853 262.642v51.326c0 22.654-18.309 41.018-40.962 41.018H129.708c-22.622 0-40.962-18.301-40.962-41.016V122.936c0-22.653 18.309-41.016 40.962-41.016h150.183c22.622 0 40.962 18.301 40.962 41.016v95.515"/>
  <path fill="#602f75" d="M279.89 361.813H129.71c-26.351 0-47.79-21.46-47.79-47.84v-191.04c0-26.38 21.439-47.84 47.79-47.84h150.18c26.351 0 47.79 21.46 47.79 47.84v95.52c0 3.773-3.057 6.827-6.827 6.827s-6.827-3.053-6.827-6.827v-95.52c0-18.854-15.314-34.186-34.137-34.186H129.71c-18.823 0-34.137 15.333-34.137 34.186v191.041c0 18.854 15.314 34.186 34.137 34.186h150.18c18.823 0 34.137-15.333 34.137-34.186v-51.333c0-3.773 3.057-6.827 6.827-6.827s6.827 3.053 6.827 6.827v51.333c-.001 26.38-21.44 47.839-47.791 47.839z"/>
  <path fill="#ffe600" d="M132.874 26.95c2.021-11.114 12.829-20.123 24.1-20.123h95.652c11.29 0 22.088 9.057 24.1 20.123l9.994 54.97H122.88l9.994-54.97z"/>
  <path fill="#602f75" d="M286.72 88.747H122.88c-2.024 0-3.944-.899-5.239-2.454s-1.84-3.599-1.476-5.593l9.993-54.967C128.783 11.3 142.321 0 156.974 0h95.654c14.657 0 28.191 11.3 30.817 25.733l9.993 54.967c.363 1.993-.179 4.04-1.476 5.593-1.298 1.553-3.218 2.454-5.242 2.454zM131.06 75.093h147.48l-8.53-46.92c-1.434-7.866-9.393-14.52-17.384-14.52h-95.654c-7.991 0-15.951 6.647-17.384 14.52l-8.528 46.92z"/>
  <path fill="#ffe600" d="M132.874 409.957c2.021 11.114 12.829 20.123 24.1 20.123h95.652c11.29 0 22.088-9.057 24.1-20.123l9.994-54.97H122.88l9.994 54.97z"/>
  <path fill="#602f75" d="M252.626 436.907h-95.654c-14.653 0-28.191-11.3-30.817-25.733l-9.993-54.967c-.364-1.993.179-4.04 1.476-5.593s3.217-2.454 5.241-2.454h163.84c2.024 0 3.944.899 5.239 2.454 1.295 1.555 1.84 3.599 1.476 5.593l-9.993 54.967c-2.624 14.433-16.158 25.733-30.815 25.733zM139.59 408.733c1.434 7.873 9.393 14.52 17.384 14.52h95.654c7.991 0 15.95-6.653 17.384-14.52l8.528-46.92H131.06l8.53 46.92z"/>
  <path fill="#00e7ff" d="M335.519 218.453h-14.665v-61.44h14.665c6.982 0 12.641 5.659 12.641 12.641v36.157c0 6.983-5.659 12.642-12.641 12.642z"/>
  <path fill="#602f75" d="M335.52 225.28h-14.667c-3.77 0-6.827-3.053-6.827-6.827v-61.44c0-3.773 3.057-6.827 6.827-6.827h14.667c10.733 0 19.466 8.733 19.466 19.466v36.161c.001 10.734-8.732 19.467-19.466 19.467zm-7.84-13.653h7.84c3.207 0 5.813-2.606 5.813-5.813v-36.161c0-3.207-2.606-5.813-5.813-5.813h-7.84v47.787z"/>
  <circle cx="204.8" cy="218.453" r="27.307" fill="#ea3457"/>
  <path fill="#602f75" d="M204.8 252.587c-18.819 0-34.133-15.314-34.133-34.133s15.314-34.133 34.133-34.133 34.133 15.314 34.133 34.133-15.314 34.133-34.133 34.133zm0-54.614c-11.293 0-20.48 9.187-20.48 20.48s9.187 20.48 20.48 20.48c11.293 0 20.48-9.187 20.48-20.48s-9.187-20.48-20.48-20.48z"/>
  <circle cx="133.12" cy="218.453" r="23.893" fill="#ffe600"/>
  <path fill="#602f75" d="M133.12 249.173c-16.94 0-30.72-13.78-30.72-30.72s13.78-30.72 30.72-30.72 30.72 13.78 30.72 30.72-13.78 30.72-30.72 30.72zm0-47.786c-9.411 0-17.067 7.653-17.067 17.067s7.656 17.067 17.067 17.067c9.411 0 17.067-7.653 17.067-17.067s-7.656-17.067-17.067-17.067z"/>
  <circle cx="276.48" cy="218.453" r="23.893" fill="#00e7ff"/>
  <path fill="#602f75" d="M276.48 249.173c-16.94 0-30.72-13.78-30.72-30.72s13.78-30.72 30.72-30.72 30.72 13.78 30.72 30.72-13.78 30.72-30.72 30.72zm0-47.786c-9.411 0-17.067 7.653-17.067 17.067s7.656 17.067 17.067 17.067 17.067-7.653 17.067-17.067-7.656-17.067-17.067-17.067z"/>
  <circle cx="174.08" cy="139.947" r="23.893" fill="#ffe600"/>
  <path fill="#602f75" d="M174.08 170.667c-16.94 0-30.72-13.78-30.72-30.72s13.78-30.72 30.72-30.72 30.72 13.78 30.72 30.72-13.78 30.72-30.72 30.72zm0-47.787c-9.411 0-17.067 7.653-17.067 17.067s7.656 17.067 17.067 17.067c9.411 0 17.067-7.653 17.067-17.067s-7.656-17.067-17.067-17.067z"/>
  <circle cx="242.347" cy="139.947" r="23.893" fill="#eaeaea"/>
  <path fill="#602f75" d="M242.347 170.667c-16.94 0-30.72-13.78-30.72-30.72s13.78-30.72 30.72-30.72 30.72 13.78 30.72 30.72-13.78 30.72-30.72 30.72zm0-47.787c-9.411 0-17.067 7.653-17.067 17.067s7.656 17.067 17.067 17.067c9.411 0 17.067-7.653 17.067-17.067s-7.657-17.067-17.067-17.067z"/>
  <circle cx="174.08" cy="290.133" r="23.893" fill="#00e7ff"/>
  <path fill="#602f75" d="M174.08 320.853c-16.94 0-30.72-13.78-30.72-30.72s13.78-30.72 30.72-30.72 30.72 13.78 30.72 30.72-13.78 30.72-30.72 30.72zm0-47.786c-9.411 0-17.067 7.653-17.067 17.067 0 9.414 7.656 17.067 17.067 17.067 9.411 0 17.067-7.653 17.067-17.067 0-9.415-7.656-17.067-17.067-17.067z"/>
  <circle cx="242.347" cy="290.133" r="23.893" fill="#eaeaea"/>
  <path fill="#602f75" d="M242.347 320.853c-16.94 0-30.72-13.78-30.72-30.72s13.78-30.72 30.72-30.72 30.72 13.78 30.72 30.72-13.78 30.72-30.72 30.72zm0-47.786c-9.411 0-17.067 7.653-17.067 17.067 0 9.414 7.656 17.067 17.067 17.067 9.411 0 17.067-7.653 17.067-17.067-.001-9.415-7.657-17.067-17.067-17.067z"/>
</svg>
